<svg width="1200" height="1200" viewBox="0 0 1200 1200" fill="none" xmlns="http://www.w3.org/2000/svg">
<g clip-path="url(#clip0_10_266)">
<path d="M905 541L729 675L728 224L905 541Z" fill="url(#paint0_linear_10_266)"/>
<path d="M990 375L728 224L905 541L990 375Z" fill="url(#paint1_linear_10_266)"/>
<path d="M990 375L905 541L990 825L990 375Z" fill="url(#paint2_linear_10_266)"/>
<path d="M905 541L990.001 825.001L729.001 675.001L905 541Z" fill="url(#paint3_linear_10_266)"/>
<path d="M702 894L729 675L339 899L702 894Z" fill="url(#paint4_linear_10_266)"/>
<path d="M702 894L990 825L729 675L702 894Z" fill="url(#paint5_linear_10_266)"/>
<path d="M600 1050L702 894L990 825L600 1050Z" fill="url(#paint6_linear_10_266)"/>
<path d="M600 1050L339 899L702 894L600 1050Z" fill="url(#paint7_linear_10_266)"/>
<path d="M1107.62 306.928V893.071L600 1186.14L92.3848 893.071V306.928L600 13.8564L1107.62 306.928Z" stroke="url(#paint8_linear_10_266)" stroke-width="24"/>
</g>
<defs>
<linearGradient id="paint0_linear_10_266" x1="651.491" y1="268.172" x2="628.25" y2="619.088" gradientUnits="userSpaceOnUse">
<stop stop-color="#7020EF"/>
<stop offset="1" stop-color="#5944FC"/>
</linearGradient>
<linearGradient id="paint1_linear_10_266" x1="727.113" y1="224.512" x2="795.244" y2="520.447" gradientUnits="userSpaceOnUse">
<stop stop-color="#8E20FB"/>
<stop offset="1" stop-color="#4F0BBF"/>
</linearGradient>
<linearGradient id="paint2_linear_10_266" x1="1043.99" y1="468.512" x2="1062.8" y2="722.084" gradientUnits="userSpaceOnUse">
<stop stop-color="#4B21C0"/>
<stop offset="1" stop-color="#1B068C"/>
</linearGradient>
<linearGradient id="paint3_linear_10_266" x1="755.74" y1="721.315" x2="994.966" y2="777.582" gradientUnits="userSpaceOnUse">
<stop stop-color="#3132C7"/>
<stop offset="1" stop-color="#3F1CB1"/>
</linearGradient>
<linearGradient id="paint4_linear_10_266" x1="339" y1="804.248" x2="729" y2="769.752" gradientUnits="userSpaceOnUse">
<stop stop-color="#0EA1EE"/>
<stop offset="1" stop-color="#1357CC"/>
</linearGradient>
<linearGradient id="paint5_linear_10_266" x1="702" y1="748.796" x2="990" y2="820.204" gradientUnits="userSpaceOnUse">
<stop stop-color="#2F3DE4"/>
<stop offset="1" stop-color="#352CC4"/>
</linearGradient>
<linearGradient id="paint6_linear_10_266" x1="688.165" y1="1050" x2="901.835" y2="825" gradientUnits="userSpaceOnUse">
<stop stop-color="#1F4CD7"/>
<stop offset="1" stop-color="#2423CC"/>
</linearGradient>
<linearGradient id="paint7_linear_10_266" x1="420.115" y1="894" x2="620.885" y2="1050" gradientUnits="userSpaceOnUse">
<stop stop-color="#12ADF2"/>
<stop offset="1" stop-color="#1F68D3"/>
</linearGradient>
<linearGradient id="paint8_linear_10_266" x1="-6.78087e-07" y1="755.281" x2="1200" y2="444.719" gradientUnits="userSpaceOnUse">
<stop stop-color="#2472FC"/>
<stop offset="1" stop-color="#8711C1"/>
</linearGradient>
<clipPath id="clip0_10_266">
<rect width="1200" height="1200" fill="white"/>
</clipPath>
</defs>
</svg>
